<svg stroke="currentColor" fill="currentColor" stroke-width="0" stroke-width="15" viewBox="0 0 512 512" height="1em" width="1em" xmlns="http://www.w3.org/2000/svg">
<g id="SVGRepo_bgCarrier" stroke-width="0"></g><g id="SVGRepo_tracerCarrier" stroke-linecap="round" stroke-linejoin="round"></g><g id="SVGRepo_iconCarrier"> <g> <g> <g> <path d="M48.122,343.816h47.757V168.059H48.122V343.816z M63.879,183.816h16.243v144.243H63.879V183.816z"></path> <polygon points="24.121,286.077 8.121,318.077 8.121,343.937 23.879,343.937 23.879,321.797 39.878,289.797 39.878,247.938 24.121,247.938 "></polygon> <rect y="248.059" width="16" height="15.757"></rect> <path d="M416.121,343.816h47.757V168.059h-47.757V343.816z M431.879,183.816h16.243v144.243h-16.243V183.816z"></path> <polygon points="487.879,247.938 472.122,247.938 472.122,289.797 488.122,321.797 488.122,343.937 503.879,343.937 503.879,318.077 487.879,286.077 "></polygon> <rect x="495.996" y="248.059" width="16" height="15.757"></rect> <rect x="103.998" y="248.059" width="303.999" height="15.757"></rect> </g> </g> </g> </g></svg>