<svg width="1em" height="1em"
    viewBox="0 0 300.000000 300.000000" preserveAspectRatio="xMidYMid meet">
    <g transform="translate(0.000000,300.000000) scale(0.100000,-0.100000)" fill="currentColor" stroke="none">
        <path d="M2600 2257 c-237 -67 -308 -367 -128 -534 154 -141 403 -93 495 95
24 48 28 69 28 137 -1 95 -26 156 -90 220 -77 77 -203 111 -305 82z" />
        <path d="M1694 1802 c-254 -92 -469 -173 -478 -181 -10 -8 -23 -28 -29 -44
-12 -28 -35 -38 -434 -181 -231 -84 -432 -160 -447 -169 -58 -39 -77 -131 -40
-201 46 -90 120 -106 254 -56 47 17 229 83 405 146 176 64 361 130 410 149
311 114 687 246 691 242 3 -2 -9 -61 -26 -130 -34 -142 -35 -155 -16 -200 12
-30 204 -209 269 -252 63 -41 167 3 167 72 0 27 -16 51 -95 142 -52 60 -97
120 -100 133 -4 16 13 89 49 207 31 101 56 193 56 206 0 35 -76 235 -97 256
-40 41 -58 36 -539 -139z" />
    </g>
</svg>