<svg  transform="translate(0,-5)" stroke="currentColor" fill="currentColor" stroke-width="15" viewBox="0 0 512 512" height="1.5em" width="1.5em" xmlns="http://www.w3.org/2000/svg">
<path d="M0 0 C3.6685547 2.07747367 7.23985291 4.25809564 10.7890625 6.53125 C11.85769531 7.20542969 12.92632812 7.87960937 14.02734375 8.57421875 C16.2805336 10.01248245 18.52639185 11.45841117 20.765625 12.91796875 C25.70870596 16.13769234 30.68668205 19.30240619 35.6640625 22.46875 C36.61297363 23.07251465 37.56188477 23.6762793 38.53955078 24.29833984 C47.24446202 29.83103373 55.98573141 35.30398691 64.74658203 40.74755859 C72.26491591 45.41991721 79.74733143 50.13643029 87.1640625 54.96875 C92.87915757 58.68969164 98.64497955 62.30828429 104.4765625 65.84375 C114.12113403 71.69188568 123.62071253 77.76023373 133.12548828 83.83203125 C137.13186252 86.38788503 141.14646896 88.93057771 145.1640625 91.46875 C145.91308838 91.9423999 146.66211426 92.4160498 147.43383789 92.90405273 C151.98849228 95.77924112 156.55638957 98.63223586 161.1328125 101.47265625 C162.75823975 102.48307983 162.75823975 102.48307983 164.41650391 103.51391602 C166.53682468 104.83102702 168.65882361 106.14544139 170.78271484 107.45678711 C171.75160645 108.05885986 172.72049805 108.66093262 173.71875 109.28125 C174.57710449 109.81234375 175.43545898 110.3434375 176.31982422 110.890625 C178.96344456 112.6471139 181.42791046 114.40657698 183.7890625 116.53125 C184.8512059 122.5500626 182.78820049 127.40991495 179.7890625 132.53125 C177.05232149 136.31858827 174.13025458 139.50770868 170.4140625 142.34375 C164.31766544 142.77920693 158.59239889 137.41133913 153.65234375 134.265625 C152.68876953 133.65211182 151.72519531 133.03859863 150.73242188 132.40649414 C147.97619681 130.65047517 145.22043115 128.89373815 142.46484375 127.13671875 C133.57346739 121.46896784 124.6790388 115.80780305 115.72509766 110.23925781 C112.03289451 107.94125338 108.35494208 105.62251932 104.6875 103.28515625 C103.8214917 102.73424316 102.9554834 102.18333008 102.06323242 101.61572266 C100.37159415 100.53863046 98.68158119 99.45898025 96.9934082 98.37646484 C96.22859131 97.89000488 95.46377441 97.40354492 94.67578125 96.90234375 C93.99733154 96.46849365 93.31888184 96.03464355 92.61987305 95.58764648 C90.66676939 94.37924646 90.66676939 94.37924646 87.7890625 93.53125 C80.17656433 107.16033964 72.95041852 120.96754672 65.83984375 134.86328125 C64.95736606 136.58523172 64.07475785 138.30711529 63.1920166 140.02893066 C61.05619674 144.19560278 58.92213215 148.36316933 56.7890625 152.53125 C58.76834732 152.53344984 58.76834732 152.53344984 60.78761768 152.53569412 C92.13526767 152.57142332 123.48280691 152.62770371 154.83036961 152.70917095 C158.69168157 152.71918799 162.55299396 152.72903219 166.41430664 152.73876953 C167.56734644 152.74168159 167.56734644 152.74168159 168.74367996 152.74465248 C181.17784135 152.77564376 193.61198429 152.7926451 206.04617701 152.80444422 C218.81203271 152.81687069 231.57779188 152.84440578 244.34358662 152.88586307 C252.21596598 152.91095576 260.08818519 152.92437038 267.96060511 152.92267957 C274.00494454 152.9226462 280.04902697 152.94366952 286.09330559 152.97241783 C288.56717159 152.98091984 291.04107173 152.98266475 293.51494598 152.97705269 C296.90084603 152.9703962 300.28578203 152.98837453 303.67158508 153.01226807 C304.64340849 153.00450765 305.61523189 152.99674723 306.61650449 152.98875165 C316.4938589 153.11157344 324.90865422 155.82244689 332.078125 162.7578125 C332.64273437 163.34304688 333.20734375 163.92828125 333.7890625 164.53125 C334.6965625 165.43875 335.6040625 166.34625 336.5390625 167.28125 C344.14235211 178.26377943 343.27216328 189.92569543 343.0390625 202.71875 C343.01896367 204.6438616 343.00071889 206.56899349 342.984375 208.49414062 C342.94065464 213.17368504 342.87181488 217.85223973 342.7890625 222.53125 C343.49933594 222.51964844 344.20960938 222.50804687 344.94140625 222.49609375 C345.86050781 222.48707031 346.77960938 222.47804688 347.7265625 222.46875 C348.64308594 222.45714844 349.55960937 222.44554687 350.50390625 222.43359375 C352.7890625 222.53125 352.7890625 222.53125 353.7890625 223.53125 C353.7890625 230.46125 353.7890625 237.39125 353.7890625 244.53125 C338.9390625 244.53125 324.0890625 244.53125 308.7890625 244.53125 C308.7890625 223.53125 308.7890625 223.53125 309.7890625 222.53125 C311.64193752 222.45898498 313.49740128 222.4474378 315.3515625 222.46875 C316.36347656 222.47777344 317.37539063 222.48679687 318.41796875 222.49609375 C319.59166016 222.51349609 319.59166016 222.51349609 320.7890625 222.53125 C320.71990586 217.38958787 320.63180522 212.24871736 320.52661133 207.10766602 C320.49348483 205.36101101 320.46541513 203.61425212 320.44262695 201.86743164 C320.40885369 199.3473713 320.35652903 196.82825248 320.30078125 194.30859375 C320.29119637 193.1487925 320.29119637 193.1487925 320.28141785 191.96556091 C320.14375344 186.81734638 319.46209728 182.99315373 316.7890625 178.53125 C312.78437306 176.82005009 309.32330185 176.28059824 304.99468327 176.27677441 C303.8549503 176.27094221 302.71521734 176.26511002 301.54094702 176.25910109 C299.67748756 176.26477008 299.67748756 176.26477008 297.77638245 176.27055359 C296.43563068 176.26753169 295.09488064 176.26364202 293.75413364 176.25896102 C290.07566277 176.24867722 286.39728932 176.2508638 282.71881044 176.25514162 C278.74940907 176.25760813 274.7800312 176.24859563 270.81063843 176.24110413 C263.03660309 176.22835327 255.26260228 176.2265639 247.48855824 176.22890439 C241.17010707 176.23068719 234.85166639 176.22893873 228.53321648 176.22467995 C227.63405807 176.22408476 226.73489967 176.22348957 225.80849404 176.22287634 C223.98187836 176.2216646 222.15526269 176.22045046 220.32864701 176.21923397 C203.19792861 176.20835705 186.06722989 176.21052171 168.93651038 176.21661881 C153.26350258 176.22178876 137.59055692 176.21053075 121.91756142 176.19152059 C105.82482518 176.17215092 89.73211835 176.16388462 73.63937038 176.16764385 C64.60437821 176.16955713 55.56943893 176.16705589 46.53445625 176.15292931 C38.84337967 176.14102567 31.15238855 176.13959921 23.46131081 176.15171947 C19.53740503 176.15761517 15.61365565 176.15868857 11.68976021 176.14671707 C8.0966285 176.13588209 4.50378423 176.13893297 0.9106661 176.15297876 C-1.00258787 176.15688786 -2.91585448 176.14605914 -4.82907861 176.13468188 C-11.04790526 176.17391382 -15.75858292 176.4208653 -21.2109375 179.53125 C-24.20295862 182.98589079 -23.56456941 188.09822395 -23.625 192.453125 C-23.64436615 193.31311096 -23.6637323 194.17309692 -23.6836853 195.05914307 C-23.74335564 197.79974521 -23.7898161 200.54038964 -23.8359375 203.28125 C-23.87412884 205.14194517 -23.91318125 207.00262288 -23.953125 208.86328125 C-24.04904685 213.41912864 -24.13312418 217.97505879 -24.2109375 222.53125 C-20.5809375 222.53125 -16.9509375 222.53125 -13.2109375 222.53125 C-13.2109375 229.79125 -13.2109375 237.05125 -13.2109375 244.53125 C-27.7309375 244.53125 -42.2509375 244.53125 -57.2109375 244.53125 C-57.2109375 237.27125 -57.2109375 230.01125 -57.2109375 222.53125 C-53.5809375 222.53125 -49.9509375 222.53125 -46.2109375 222.53125 C-46.23188477 221.31131348 -46.25283203 220.09137695 -46.27441406 218.83447266 C-46.34731837 214.26851334 -46.3929192 209.70260452 -46.43066406 205.13623047 C-46.45066537 203.16739218 -46.47787552 201.19861244 -46.51269531 199.22998047 C-46.56172281 196.38494342 -46.58402132 193.54069785 -46.6015625 190.6953125 C-46.62220764 189.82822662 -46.64285278 188.96114075 -46.66412354 188.06777954 C-46.66747322 178.75332237 -43.28684375 169.69802925 -36.68359375 162.9765625 C-29.7475968 156.65395304 -22.5533877 153.49610052 -13.14526367 153.32592773 C-12.16462448 153.30598251 -11.18398529 153.28603729 -10.17362976 153.26548767 C-9.127621 153.24877518 -8.08161224 153.23206268 -7.00390625 153.21484375 C-5.92337479 153.19406265 -4.84284332 153.17328156 -3.72956848 153.15187073 C-0.28592139 153.08660964 3.15780045 153.02759925 6.6015625 152.96875 C8.93946078 152.92554249 11.27735157 152.88192749 13.61523438 152.83789062 C19.33976528 152.73095228 25.06437015 152.62914273 30.7890625 152.53125 C31.07039032 151.96335754 31.35171814 151.39546509 31.64157104 150.81036377 C32.93595544 148.20061554 34.2335791 145.59249051 35.53125 142.984375 C35.97364014 142.09121582 36.41603027 141.19805664 36.87182617 140.27783203 C39.40948666 135.18383462 42.04604952 130.19692769 44.9140625 125.28125 C47.99471083 119.99750854 50.79311213 114.64298312 53.49072266 109.15917969 C58.40792152 99.19052396 63.6247738 89.37341144 68.7890625 79.53125 C68.03399414 79.24241943 67.27892578 78.95358887 66.50097656 78.65600586 C62.9375273 77.17807907 59.78138776 75.15954706 56.5390625 73.09375 C55.84087402 72.65345459 55.14268555 72.21315918 54.42333984 71.75952148 C48.67541933 68.12395856 42.97684478 64.41303864 37.27709961 60.70263672 C32.26899513 57.45539334 27.20526906 54.31319002 22.1015625 51.21875 C15.11656112 46.98011365 8.18731818 42.65971728 1.2890625 38.28125 C0.39356689 37.71494873 -0.50192871 37.14864746 -1.42456055 36.56518555 C-20.73523279 24.27038364 -20.73523279 24.27038364 -23.2109375 18.53125 C-23.84267822 13.92325887 -23.80916305 9.97958554 -22.0234375 5.65625 C-16.00821226 -1.39608304 -8.63937447 -3.95183066 0 0 Z " transform="translate(155.2109375,254.46875)"/>
<path d="M0 0 C1.01634018 -0.00860046 2.03268036 -0.01720093 3.07981873 -0.02606201 C4.20444519 -0.03032196 5.32907166 -0.03458191 6.48777771 -0.03897095 C8.25362465 -0.05123718 8.25362465 -0.05123718 10.05514526 -0.06375122 C13.97204728 -0.08867167 17.88894178 -0.10529067 21.80589294 -0.11953735 C23.1544489 -0.12489663 24.50300478 -0.13027413 25.85156059 -0.13566971 C31.46439595 -0.15731158 37.07722839 -0.17604506 42.69009495 -0.1872921 C50.7293273 -0.2035066 58.76807433 -0.23660757 66.80712372 -0.29369295 C72.4607253 -0.33246529 78.11419754 -0.35193379 83.76792854 -0.35721266 C87.14310912 -0.36085841 90.51777263 -0.37279359 93.89280891 -0.4053154 C97.66572444 -0.43693581 101.43742068 -0.43700695 105.21043396 -0.42959595 C106.87611923 -0.45420395 106.87611923 -0.45420395 108.57545471 -0.47930908 C115.43668587 -0.42422156 120.00278984 0.66815003 125.30198669 5.15390015 C128.74745652 8.92238277 128.81771111 12.80248561 128.64964294 17.7203064 C127.95893711 22.55524725 125.4343531 25.14943571 121.89883423 28.28561401 C117.19093894 31.30843859 111.78261146 30.71042042 106.37742615 30.67147827 C105.18167969 30.67848755 103.98593323 30.68549683 102.75395203 30.69271851 C99.48746045 30.70727307 96.22162078 30.70391161 92.9551394 30.69120216 C89.5332406 30.68104986 86.11138421 30.69047336 82.68948364 30.69674683 C76.94720173 30.70401384 71.20512596 30.6944575 65.46287537 30.67538452 C58.82342319 30.65358622 52.18446179 30.66069194 45.54502136 30.68269014 C39.84039936 30.70083425 34.13592517 30.70340834 28.43128365 30.69293547 C25.02573513 30.68669897 21.6204175 30.68586949 18.2148838 30.69908142 C14.42236896 30.70920296 10.63080721 30.69380714 6.83836365 30.67147827 C5.70843491 30.6795752 4.57850616 30.68767212 3.41433716 30.6960144 C2.38394318 30.68473511 1.35354919 30.67345581 0.29193115 30.66183472 C-0.60455485 30.66032661 -1.50104086 30.65881851 -2.42469311 30.65726471 C-4.69801331 30.15390015 -4.69801331 30.15390015 -6.44738483 28.30965424 C-8.90761756 24.06886101 -8.91344798 20.10709469 -8.94801331 15.34140015 C-8.96863831 14.64208374 -8.98926331 13.94276733 -9.01051331 13.22225952 C-9.04638964 8.42828413 -8.17717215 5.24200805 -5.69801331 1.15390015 C-4.06968615 -0.47442701 -2.24924224 0.01410857 0 0 Z " transform="translate(352.69801330566406,370.8460998535156)"/>
<path d="M0 0 C-1.44077046 3.36179774 -3.24750021 5.59156268 -6 8 C-6.66 8 -7.32 8 -8 8 C-6.48291727 4.46014029 -4.24676932 0 0 0 Z " transform="translate(123,415)"/>
<path d="M0 0 C-1.45255699 3.82946843 -3.42895561 5.12050295 -7 7 C-3.86206897 0 -3.86206897 0 0 0 Z " transform="translate(140,255)"/>
<path d="M0 0 C1.98 0.99 1.98 0.99 4 2 C2.68 1.67 1.36 1.34 0 1 C0 0.67 0 0.34 0 0 Z " transform="translate(191,271)"/>
<path d="" transform="translate(0,0)"/>
</svg>
