<svg stroke="currentColor" fill="currentColor" stroke-width="0" stroke-width="15" viewBox="0 0 512 512" height="1em" width="1em" xmlns="http://www.w3.org/2000/svg">
<g id="SVGRepo_bgCarrier" stroke-width="0"></g><g id="SVGRepo_tracerCarrier" stroke-linecap="round" stroke-linejoin="round"></g><g id="SVGRepo_iconCarrier"> <g> <g> <path d="M380.118,165.388V63.468C380.118,28.54,351.794,0,316.866,0H189.794c-34.924,0-63.06,28.54-63.06,63.468v101.92 C63.39,207.612,27.378,277.4,27.378,352.512c0,56.896,21.232,111.188,59.916,153.1c0.752,0.812,1.732,1.148,2.836,1.148h326.404 c1.108,0,2.16-0.332,2.916-1.148c38.68-41.912,59.932-96.264,59.932-153.164C479.378,277.34,443.462,207.612,380.118,165.388z M332.606,140.804c-23.756-9.548-51.9-14.384-79.18-14.384c-27.28,0-55.428,4.836-79.18,14.384V63.468 c0-8.736,6.82-15.96,15.548-15.96h127.068c8.736,0,15.744,7.228,15.744,15.96V140.804z"></path> </g> </g> </g></svg>