<svg transform="translate(0,-3)" version="1.1" id="Layer_1" xmlns="http://www.w3.org/2000/svg"
    xmlns:xlink="http://www.w3.org/1999/xlink" width="1.6em" height="1.6em" viewBox="0 0 30 30" fill="currentColor">
    <path d="M5.94,11.445c0-0.596,0-1.141,0-1.698c7.363,0,14.714,0,22.084,0c0,0.55,0,1.102,0,1.684c-1.117,0-2.235,0-3.374,0
	c0,3.79,0,7.547,0,11.327c-0.761,0-1.501,0-2.272,0c0-2.63,0-5.261,0-7.905c-0.386,0-0.741,0-1.128,0c0,3.765,0,7.529,0,11.312
	c-0.771,0-1.511,0-2.271,0c0-3.768,0-7.526,0-11.305c-2.462,0-4.904,0-7.376,0c0,2.629,0,5.26,0,7.904c-0.764,0-1.498,0-2.262,0
	c0-2.629,0-5.26,0-7.908c-0.582,0-1.133,0-1.705,0c0,3.768,0,7.525,0,11.305c-0.76,0-1.5,0-2.271,0c0-3.764,0-7.528,0-11.314
	c-1.143,0-2.254,0-3.387,0c0-0.572,0-1.123,0-1.706c2.441,0,4.883,0,7.338,0c0-0.575,0-1.12,0-1.695
	C8.197,11.445,7.079,11.445,5.94,11.445z M22.36,11.454c-3.596,0-7.171,0-10.74,0c0,0.571,0,1.122,0,1.668c3.59,0,7.159,0,10.74,0
	C22.36,12.564,22.36,12.02,22.36,11.454z" />
</svg>