<svg fill="currentColor" height="1em" width="1em" version="1.1" id="Layer_1" xmlns="http://www.w3.org/2000/svg"
    xmlns:xlink="http://www.w3.org/1999/xlink" viewBox="0 0 512 512" xml:space="preserve">
    <g id="SVGRepo_bgCarrier" stroke-width="0"></g>
    <g id="SVGRepo_tracerCarrier" stroke-linecap="round" stroke-linejoin="round"></g>
    <g id="SVGRepo_iconCarrier">
        <g>
            <g>
                <g>
                    <path
                        d="M426.667,192v42.667c0,11.776,9.536,21.333,21.333,21.333c11.797,0,21.333-9.557,21.333-21.333V192 c0-75.307-56.085-137.6-128.64-147.733C337.579,19.392,316.523,0,290.795,0h-26.923c-25.792,0-46.891,19.499-49.92,44.501 c-53.781,8.811-96.299,51.136-105.365,104.832H85.333c-11.797,0-21.333,9.557-21.333,21.333S73.536,192,85.333,192h21.333v42.667 c0,11.776,9.536,21.333,21.333,21.333c11.797,0,21.333-9.557,21.333-21.333V192h21.333c11.797,0,21.333-9.557,21.333-21.333 s-9.536-21.333-21.333-21.333h-18.304c7.765-29.845,31.125-53.205,60.971-60.971v252.971h-160 C23.915,341.333,0,365.269,0,394.667S23.915,448,53.333,448h32v42.667c0,11.776,9.536,21.333,21.333,21.333 c11.797,0,21.333-9.557,21.333-21.333V448h85.333v13.44c0,27.883,22.656,50.56,50.539,50.56h26.923 c27.883,0,50.539-22.677,50.539-50.56V87.488C389.952,97.408,426.667,140.501,426.667,192z">
                    </path>
                    <path
                        d="M384,298.667c0,11.776,9.536,21.333,21.333,21.333h85.333c11.797,0,21.333-9.557,21.333-21.333 s-9.536-21.333-21.333-21.333h-85.333C393.536,277.333,384,286.891,384,298.667z">
                    </path>
                    <path
                        d="M490.667,341.333h-85.333c-11.797,0-21.333,9.557-21.333,21.333S393.536,384,405.333,384h85.333 c11.797,0,21.333-9.557,21.333-21.333S502.464,341.333,490.667,341.333z">
                    </path>
                    <path
                        d="M490.667,405.333h-85.333c-11.797,0-21.333,9.557-21.333,21.333S393.536,448,405.333,448h85.333 c11.797,0,21.333-9.557,21.333-21.333S502.464,405.333,490.667,405.333z">
                    </path>
                </g>
            </g>
        </g>
    </g>
</svg>