<svg version="1.0" xmlns="http://www.w3.org/2000/svg"
 width="1em" height="1em" viewBox="0 0 4000.000000 4000.000000"
 preserveAspectRatio="xMidYMid meet">
<g transform="translate(0.000000,4000.000000) scale(0.100000,-0.100000)"
fill="currentColor" stroke="none">
<path d="M6185 39977 c-313 -104 -518 -331 -595 -659 -40 -171 -41 -221 -34
-2195 l7 -1903 -656 0 -657 0 0 1193 c0 1004 -3 1203 -15 1261 -26 123 -129
280 -277 422 -148 142 -286 209 -463 225 -337 31 -621 -73 -805 -292 -142
-171 -204 -343 -237 -652 -15 -134 -20 -157 -33 -151 -115 49 -301 84 -445 84
-214 0 -428 -94 -620 -272 -104 -96 -199 -309 -230 -515 -12 -81 -14 -197 -8
-699 l6 -602 -219 -4 c-251 -6 -316 -18 -457 -89 -212 -107 -342 -250 -414
-459 l-33 -95 0 -206 c0 -174 3 -218 20 -285 68 -266 275 -497 520 -580 102
-34 219 -45 412 -37 l167 6 4 -699 c4 -775 1 -745 72 -884 116 -230 277 -380
488 -455 243 -87 462 -87 673 -1 l82 33 12 -126 c15 -159 43 -328 68 -407 11
-36 46 -100 83 -155 157 -230 371 -383 573 -409 227 -30 447 7 664 110 96 46
102 51 102 79 0 26 4 30 32 33 28 3 41 15 91 83 119 165 178 326 197 538 5 60
5 518 0 1107 -5 553 -9 1038 -10 1078 l0 72 655 0 655 0 0 -15861 0 -15862
-117 7 c-65 4 -215 18 -333 32 -802 93 -876 98 -1223 91 -283 -6 -393 -18
-582 -67 -435 -113 -705 -348 -807 -705 -34 -119 -32 -321 5 -458 32 -120 90
-238 165 -336 76 -100 226 -232 310 -273 l67 -33 3370 -3 c3100 -2 3374 -1
3420 14 234 77 436 250 535 459 68 143 85 221 84 385 -1 168 -23 299 -65 383
-99 196 -229 313 -498 451 l-109 56 -1221 0 -1221 0 0 15860 0 15860 12640 0
12640 0 0 -15860 0 -15860 -67 0 c-111 0 -347 19 -713 55 -190 19 -408 39
-485 45 -182 14 -543 14 -670 0 -295 -33 -544 -111 -757 -237 -204 -121 -368
-392 -393 -649 -21 -210 63 -486 200 -659 78 -99 227 -230 305 -268 l65 -32
3380 0 3380 0 70 22 c185 59 387 237 503 443 127 228 101 662 -54 896 -92 139
-195 220 -412 325 l-123 59 -1204 0 -1205 0 0 15860 0 15860 656 0 657 0 -7
-372 c-15 -903 -18 -1883 -6 -1967 20 -146 77 -298 153 -411 69 -102 117 -149
225 -215 157 -96 239 -125 392 -138 320 -26 581 60 761 249 156 166 235 366
275 701 l19 151 35 -15 c19 -8 78 -31 130 -50 l95 -35 145 5 c339 12 585 134
788 392 55 70 87 138 109 231 17 73 18 129 15 775 l-4 697 224 4 c262 6 323
18 485 98 85 43 112 63 175 129 117 121 178 220 217 345 18 59 21 93 21 252 0
204 -12 289 -60 411 -95 247 -296 424 -560 495 -65 18 -103 20 -287 19 l-212
-2 -4 653 c-5 683 -6 706 -52 863 -43 150 -257 382 -455 493 -173 97 -449 108
-700 28 -41 -13 -82 -26 -91 -30 -13 -6 -18 13 -33 132 -45 368 -138 591 -315
754 -160 147 -322 207 -557 208 -268 0 -484 -74 -675 -233 -99 -82 -225 -294
-249 -418 -13 -62 -14 -1062 -4 -1911 l7 -538 -657 0 -656 0 0 1948 c0 1317
-3 1975 -10 2032 -30 239 -102 401 -240 541 -81 82 -155 136 -251 184 -141 72
-159 75 -388 75 -177 0 -217 -3 -279 -20 -161 -45 -279 -116 -398 -243 -117
-122 -177 -251 -229 -489 l-25 -118 0 -1955 0 -1955 -12640 0 -12640 0 0 2070
0 2070 -36 90 c-109 272 -267 423 -544 521 -59 21 -86 23 -285 26 -208 3 -224
2 -290 -20z"/>
</g>
</svg>
